# xmcd CD database file
#
# Track frame offsets:
#	150
#	23411
#	41559
#	62485
#	79453
#	101996
#	124651
#	147831
#	166982
#	189026
#
# Disc length: 2855 seconds
#
# Revision: 1
# Processed by: cddbd v1.5.2PL0 Copyright (c) Steve Scherf et al.
# Submitted via: CDex 1.70beta2
#
DISCID=7b0b250a
DTITLE=小比類巻かほる - LOVE SOLUTION
DYEAR=2001
DGENRE=JPop
TTITLE0=Sweet Home
TTITLE1=Again
TTITLE2=Rush
TTITLE3=未来飛行
TTITLE4=Le port
TTITLE5=Woo yo baby
TTITLE6=Session up 2U
TTITLE7=C4U - 口癖 -
TTITLE8=Sea &The Sky
TTITLE9=流星
EXTD=YEAR: 2001
EXTT0=
EXTT1=
EXTT2=
EXTT3=
EXTT4=
EXTT5=
EXTT6=
EXTT7=
EXTT8=
EXTT9=
PLAYORDER=
